<svg width="48" height="19" viewBox="0 0 48 19" fill="none" xmlns="http://www.w3.org/2000/svg">
<path d="M4.52557 19H0.571023L6.59659 1.54545H11.3523L17.3693 19H13.4148L9.04261 5.53409H8.90625L4.52557 19ZM4.27841 12.1392H13.6193V15.0199H4.27841V12.1392ZM19.402 19V5.90909H22.9219V8.19318H23.0582C23.2969 7.38068 23.6974 6.76705 24.2599 6.35227C24.8224 5.93182 25.4702 5.72159 26.2031 5.72159C26.3849 5.72159 26.581 5.73295 26.7912 5.75568C27.0014 5.77841 27.1861 5.80966 27.3452 5.84943V9.07102C27.1747 9.01989 26.9389 8.97443 26.6378 8.93466C26.3366 8.89489 26.0611 8.875 25.8111 8.875C25.277 8.875 24.7997 8.99148 24.3793 9.22443C23.9645 9.4517 23.6349 9.76989 23.3906 10.179C23.152 10.5881 23.0327 11.0597 23.0327 11.5938V19H19.402ZM29.2223 19V5.90909H32.853V19H29.2223ZM31.0462 4.22159C30.5064 4.22159 30.0433 4.04261 29.657 3.68466C29.2763 3.32102 29.0859 2.88636 29.0859 2.38068C29.0859 1.88068 29.2763 1.4517 29.657 1.09375C30.0433 0.730113 30.5064 0.548295 31.0462 0.548295C31.5859 0.548295 32.0462 0.730113 32.4268 1.09375C32.8132 1.4517 33.0064 1.88068 33.0064 2.38068C33.0064 2.88636 32.8132 3.32102 32.4268 3.68466C32.0462 4.04261 31.5859 4.22159 31.0462 4.22159ZM42.8011 5.90909V8.63636H34.7216V5.90909H42.8011ZM36.571 19V4.96307C36.571 4.0142 36.7557 3.22727 37.125 2.60227C37.5 1.97727 38.0114 1.50852 38.6591 1.19602C39.3068 0.883522 40.0426 0.727272 40.8665 0.727272C41.4233 0.727272 41.9318 0.769886 42.392 0.855114C42.858 0.940341 43.2045 1.01705 43.4318 1.08523L42.7841 3.8125C42.642 3.76705 42.4659 3.72443 42.2557 3.68466C42.0511 3.64489 41.8409 3.625 41.625 3.625C41.0909 3.625 40.7188 3.75 40.5085 4C40.2983 4.24432 40.1932 4.58807 40.1932 5.03125V19H36.571Z" fill="black"/>
<circle cx="45.5" cy="16.5" r="2.5" fill="#0088B9"/>
</svg>
